<svg width="25" height="24" viewBox="0 0 25 24" fill="none" xmlns="http://www.w3.org/2000/svg">
<path d="M18.25 12.998H13.25V17.998C13.25 18.2633 13.1446 18.5176 12.9571 18.7052C12.7696 18.8927 12.5152 18.998 12.25 18.998C11.9848 18.998 11.7304 18.8927 11.5429 18.7052C11.3554 18.5176 11.25 18.2633 11.25 17.998V12.998H6.25C5.98478 12.998 5.73043 12.8927 5.54289 12.7052C5.35536 12.5176 5.25 12.2633 5.25 11.998C5.25 11.7328 5.35536 11.4785 5.54289 11.2909C5.73043 11.1034 5.98478 10.998 6.25 10.998H11.25V5.99805C11.25 5.73283 11.3554 5.47848 11.5429 5.29094C11.7304 5.1034 11.9848 4.99805 12.25 4.99805C12.5152 4.99805 12.7696 5.1034 12.9571 5.29094C13.1446 5.47848 13.25 5.73283 13.25 5.99805V10.998H18.25C18.5152 10.998 18.7696 11.1034 18.9571 11.2909C19.1446 11.4785 19.25 11.7328 19.25 11.998C19.25 12.2633 19.1446 12.5176 18.9571 12.7052C18.7696 12.8927 18.5152 12.998 18.25 12.998Z" fill="#877B8C"/>
</svg>
