<svg width="16" height="16" viewBox="0 0 16 16" fill="none" xmlns="http://www.w3.org/2000/svg">
<path d="M6.66669 13.3334H9.33335C9.33335 14.0698 8.7364 14.6667 8.00002 14.6667C7.26364 14.6667 6.66669 14.0698 6.66669 13.3334Z" fill="#C1C1C1"/>
<path d="M8.66961 2.66663H7.33042L6.64618 2.91277C5.05868 3.48384 4.00015 4.98955 4.00015 6.67664V8.89021C4.00015 9.37937 3.77015 9.84006 3.37918 10.134C2.01426 11.1603 2.74006 13.3333 4.44773 13.3333H11.5525C13.2602 13.3333 13.986 11.1603 12.6211 10.134C12.2301 9.84007 12.0002 9.37938 12.0002 8.89023V6.67672C12.0002 4.98958 10.9416 3.48384 9.35401 2.9128L8.66961 2.66663Z" fill="#C1C1C1"/>
<path d="M7.33331 2.00004C7.33331 1.63185 7.63179 1.33337 7.99998 1.33337C8.36817 1.33337 8.66665 1.63185 8.66665 2.00004V2.66671H7.33331V2.00004Z" fill="#C1C1C1"/>
</svg>
