<svg width="16" height="16" viewBox="0 0 16 16" fill="none" xmlns="http://www.w3.org/2000/svg">
<path fill-rule="evenodd" clip-rule="evenodd" d="M14.6665 7.99992C14.6665 11.6826 11.6819 14.6666 7.99986 14.6666C4.31786 14.6666 1.33319 11.6826 1.33319 7.99992C1.33319 4.31859 4.31786 1.33325 7.99986 1.33325C11.6819 1.33325 14.6665 4.31859 14.6665 7.99992Z" fill="white"/>
<path fill-rule="evenodd" clip-rule="evenodd" d="M10.3824 10.5429C10.295 10.5429 10.207 10.5203 10.1264 10.4729L7.50902 8.91161C7.35835 8.82094 7.26569 8.65761 7.26569 8.48161V5.11694C7.26569 4.84094 7.48969 4.61694 7.76569 4.61694C8.04169 4.61694 8.26569 4.84094 8.26569 5.11694V8.19761L10.639 9.61294C10.8757 9.75494 10.9537 10.0616 10.8124 10.2989C10.7184 10.4556 10.5524 10.5429 10.3824 10.5429Z" fill="#61B89E"/>
</svg>
