<svg width="24" height="24" viewBox="0 0 24 24" fill="none" xmlns="http://www.w3.org/2000/svg">
<path fill-rule="evenodd" clip-rule="evenodd" d="M15.9161 10.4164L16.718 9.40645C17.0851 8.92988 17.2156 8.3789 17.0932 7.81788C16.9872 7.30787 16.6772 6.82293 16.2122 6.45505L15.0784 5.54372C14.0914 4.74943 12.8678 4.83304 12.1662 5.74438L11.3929 6.71341C11.3114 6.81708 11.3252 6.96591 11.4264 7.04951C11.6783 7.25541 12.1688 7.65666 12.738 8.12222C13.7336 8.93656 14.9696 9.94764 15.5898 10.4541C15.6902 10.536 15.8354 10.5193 15.9161 10.4164ZM13.7716 17.4081H18.161C18.5892 17.4081 18.9375 17.7651 18.9375 18.204C18.9375 18.6438 18.5892 19 18.161 19H13.7716C13.3433 19 12.995 18.6438 12.995 18.204C12.995 17.7651 13.3433 17.4081 13.7716 17.4081Z" fill="#CDCDD0"/>
<path fill-rule="evenodd" clip-rule="evenodd" d="M10.7131 8.05221L14.8848 11.4656C14.9854 11.5472 15.0026 11.697 14.9241 11.8013L9.97845 18.3267C9.66756 18.7298 9.20941 18.9579 8.71853 18.9663L6.0187 19C5.87471 19.0017 5.74871 18.9007 5.71599 18.7559L5.10239 16.0545C4.99603 15.558 5.10239 15.0447 5.41328 14.6491L10.3834 8.09261C10.4636 7.98741 10.6117 7.9689 10.7131 8.05221" fill="#040415"/>
</svg>
