<svg width="21" height="20" viewBox="0 0 21 20" fill="none" xmlns="http://www.w3.org/2000/svg">
<path fill-rule="evenodd" clip-rule="evenodd" d="M10.25 2C8.85077 1.99974 7.47593 2.36649 6.26273 3.06363C5.04952 3.76077 4.04038 4.76392 3.33603 5.97295C2.63168 7.18199 2.25675 8.55462 2.24868 9.95383C2.2406 11.3531 2.59966 12.7299 3.29001 13.947C3.75662 13.3406 4.35644 12.8496 5.0431 12.512C5.72975 12.1744 6.48485 11.9992 7.25001 12H13.25C14.0152 11.9992 14.7703 12.1744 15.4569 12.512C16.1436 12.8496 16.7434 13.3406 17.21 13.947C17.9004 12.7299 18.2594 11.3531 18.2513 9.95383C18.2433 8.55462 17.8683 7.18199 17.164 5.97295C16.4596 4.76392 15.4505 3.76077 14.2373 3.06363C13.0241 2.36649 11.6493 1.99974 10.25 2ZM18.193 16.076C18.3183 15.9127 18.4383 15.7453 18.553 15.574C19.6616 13.9267 20.2526 11.9856 20.25 10C20.25 4.477 15.773 0 10.25 0C4.72701 0 0.25001 4.477 0.25001 10C0.246859 12.1968 0.97005 14.3329 2.30701 16.076L2.30201 16.094L2.65701 16.507C3.5949 17.6035 4.75939 18.4836 6.07024 19.0866C7.38109 19.6897 8.80711 20.0013 10.25 20C10.466 20 10.6807 19.9933 10.894 19.98C12.6984 19.8662 14.4377 19.2629 15.925 18.235C16.6363 17.7443 17.281 17.1635 17.843 16.507L18.198 16.094L18.193 16.076ZM10.25 4C9.45436 4 8.6913 4.31607 8.12869 4.87868C7.56608 5.44129 7.25001 6.20435 7.25001 7C7.25001 7.79565 7.56608 8.55871 8.12869 9.12132C8.6913 9.68393 9.45436 10 10.25 10C11.0457 10 11.8087 9.68393 12.3713 9.12132C12.9339 8.55871 13.25 7.79565 13.25 7C13.25 6.20435 12.9339 5.44129 12.3713 4.87868C11.8087 4.31607 11.0457 4 10.25 4Z" fill="#61B89E"/>
</svg>
