<svg width="26" height="26" viewBox="0 0 26 26" fill="none" xmlns="http://www.w3.org/2000/svg">
<path fill-rule="evenodd" clip-rule="evenodd" d="M13.8863 25.4999C14.4891 25.4999 15.0671 25.2605 15.4934 24.8343C15.9196 24.4081 16.159 23.83 16.159 23.2272V2.77272C16.159 2.16995 15.9196 1.59188 15.4934 1.16565C15.0671 0.739417 14.4891 0.5 13.8863 0.5H11.6136C11.0108 0.5 10.4327 0.739417 10.0065 1.16565C9.58026 1.59188 9.34085 2.16995 9.34085 2.77272V23.2272C9.34085 23.83 9.58026 24.4081 10.0065 24.8343C10.4327 25.2605 11.0108 25.4999 11.6136 25.4999H13.8863ZM11.6136 2.77272H13.8863V23.2272H11.6136V2.77272ZM4.79551 25.5C5.39828 25.5 5.97635 25.2605 6.40258 24.8343C6.82881 24.4081 7.06823 23.83 7.06823 23.2272V14.1363C7.06823 13.5336 6.82881 12.9555 6.40258 12.5293C5.97635 12.103 5.39828 11.8636 4.79551 11.8636H2.52278C1.92002 11.8636 1.34194 12.103 0.915708 12.5293C0.489478 12.9555 0.250061 13.5336 0.250061 14.1363V23.2272C0.250061 23.83 0.489478 24.4081 0.915708 24.8343C1.34194 25.2605 1.92002 25.5 2.52278 25.5H4.79551ZM2.52278 14.1363H4.79551V23.2272H2.52278V14.1363ZM24.5843 24.8343C24.1581 25.2605 23.58 25.4999 22.9773 25.4999H20.7045C20.1018 25.4999 19.5237 25.2605 19.0975 24.8343C18.6712 24.408 18.4318 23.83 18.4318 23.2272V9.59086C18.4318 8.98809 18.6712 8.41001 19.0975 7.98378C19.5237 7.55755 20.1018 7.31814 20.7045 7.31814H22.9773C23.58 7.31814 24.1581 7.55755 24.5843 7.98378C25.0106 8.41001 25.25 8.98809 25.25 9.59086V23.2272C25.25 23.83 25.0106 24.408 24.5843 24.8343ZM22.9773 9.59086H20.7045V23.2272H22.9773V9.59086Z" fill="#877B8C"/>
</svg>
